# xmcd CD database file
#
# Track frame offsets:
#	150
#	13284
#	26709
#	40635
#	52778
#	66315
#	82257
#	94126
#	106867
#	121148
#	134107
#	147064
#	158385
#	171469
#	197873
#	232309
#	267132
#
# Disc length: 3983 seconds
#
# Revision: 0
# Processed by: cddbd v1.5.2PL0 Copyright (c) Steve Scherf et al.
# Submitted via: CDex 1.70beta2
#
DISCID=f00f8d11
DTITLE=Lester Young - Jazz Roads CD181 - Swing - Lester Young Vol.9 (1951-52)
DYEAR=2006
DGENRE=Jazz
TTITLE0=Lester Young Quartet - Thou Swell
TTITLE1=Lester Young Quartet - Thou Swell
TTITLE2=Lester Young Quartet - September In The Rain
TTITLE3=Lester Young Quartet - Undercover Girl Blues
TTITLE4=Lester Young Quartet - Frenesi
TTITLE5=Lester Young Quartet - Pete's Cafe
TTITLE6=Lester Young Quartet - Little Pee Blues
TTITLE7=Lester Young Quartet - A Foggy Day
TTITLE8=Lester Young Quartet - In A Little Spanish Town
TTITLE9=Lester Young Quartet - Let's Fall In Love
TTITLE10=Lester Young Quartet - Down 'n' Adam
TTITLE11=Lester Young Quartet - Lester Swings
TTITLE12=Lester Young Quartet - Slow Motion Blues
TTITLE13=Lester Young With The Oscar Peterson Trio - Ad Lib Blues
TTITLE14=Lester Young With The Oscar Peterson Trio - Just You, Just Me
TTITLE15=Lester Young With The Oscar Peterson Trio - Tea For Two
TTITLE16=Lester Young With The Oscar Peterson Trio - Indiana
EXTD=YEAR: 2006
EXTT0=
EXTT1=
EXTT2=
EXTT3=
EXTT4=
EXTT5=
EXTT6=
EXTT7=
EXTT8=
EXTT9=
EXTT10=
EXTT11=
EXTT12=
EXTT13=
EXTT14=
EXTT15=
EXTT16=
PLAYORDER=
